<svg fill="#000000" xmlns="http://www.w3.org/2000/svg" xmlns:xlink="http://www.w3.org/1999/xlink" version="1.1" x="0px" y="0px" viewBox="0 0 100 100" style="enable-background:new 0 0 100 100;" xml:space="preserve"><g><path d="M72.5,88.9h-45L5,50l22.5-38.9h45L95,50L72.5,88.9z M29.8,84.9h40.3L90.3,50L70.2,15.1H29.8L9.7,50L29.8,84.9z"/></g><path d="M76,52.3c-2-4.8-6.1-9.4-11.5-12.9c-1.5-1-3-1.8-4.5-2.5c0,0,0,0,0-0.1c0-4.1-2.5-7.6-6-9.2l3.4-3.4c0.8-0.8,0.8-2,0-2.8  c-0.8-0.8-2-0.8-2.8,0L50,26l-4.5-4.5c-0.8-0.8-2-0.8-2.8,0c-0.8,0.8-0.8,2,0,2.8l3.3,3.3c-3.6,1.5-6.1,5.1-6.1,9.2c0,0,0,0,0,0.1  c-1.5,0.7-3,1.5-4.5,2.5C30.1,42.9,26,47.5,24,52.3c-2.1,5.1,0.3,11,5.4,13.1c1.2,0.5,2.5,0.8,3.8,0.8c1.6,0,3.1-0.4,4.5-1  c2.2,3.7,6,6.2,10.3,6.7v5.3c0,1.1,0.9,2,2,2c1.1,0,2-0.9,2-2v-5.3c4.3-0.6,8-3.1,10.3-6.7c1.4,0.7,2.9,1,4.5,1  c1.3,0,2.6-0.3,3.8-0.8C75.7,63.3,78.1,57.4,76,52.3L76,52.3z M50,30.8c2.8,0,5.2,1.9,5.8,4.5c-1.6-0.5-3-0.7-4.2-0.7h-3.2  c-1.2,0-2.7,0.2-4.2,0.7C44.8,32.7,47.2,30.8,50,30.8L50,30.8z M50,68.1c-2.5,0-4.8-0.9-6.6-2.4h13.2C54.8,67.2,52.5,68.1,50,68.1  L50,68.1z M57.5,60c0.3,0.6,0.6,1.2,0.9,1.7H41.6c0.4-0.5,0.7-1.1,0.9-1.8l0.9-2.2h13.1L57.5,60z M45.1,53.8l1.6-4h6.6l1.6,4H45.1z   M48.3,45.9l1.7-4.1l1.7,4.1H48.3z M33.3,62.2c-0.8,0-1.6-0.2-2.3-0.5c-3.1-1.3-4.6-4.8-3.3-7.9c2.7-6.4,9.5-11.5,15.1-13.8  c0.1,0,0.2-0.1,0.3-0.1c1.5-0.6,2.8-1,4-1.2l-3.5,8.4l0,0L40.3,55c0,0,0,0,0,0l-1.4,3.4c-0.4,0.9-0.9,1.6-1.6,2.2c0,0-0.1,0-0.1,0.1  C36.1,61.7,34.8,62.2,33.3,62.2L33.3,62.2z M69,61.8c-0.7,0.3-1.5,0.5-2.3,0.5c-1.5,0-2.9-0.5-3.9-1.5c0,0,0,0-0.1,0  c-0.7-0.6-1.3-1.4-1.6-2.2L59.7,55c0,0,0,0,0,0l-3.2-7.9c0,0,0,0,0,0L53,38.7c1.2,0.2,2.5,0.6,4,1.2c0.1,0,0.2,0.1,0.2,0.1  c5.5,2.4,12.4,7.4,15.1,13.8C73.6,56.9,72.1,60.5,69,61.8L69,61.8z M69,61.8"/></svg>
